<mxfile host="app.diagrams.net" agent="Mozilla/5.0 (Windows NT 10.0; Win64; x64) AppleWebKit/537.36 (KHTML, like Gecko) Chrome/136.0.0.0 Safari/537.36 Edg/136.0.0.0" version="27.1.1">
  <diagram name="Page-1" id="yKhCnSfCbhV9WJKja04S">
    <mxGraphModel dx="2066" dy="635" grid="1" gridSize="10" guides="1" tooltips="1" connect="1" arrows="1" fold="1" page="1" pageScale="1" pageWidth="850" pageHeight="1100" math="0" shadow="0">
      <root>
        <mxCell id="0" />
        <mxCell id="1" parent="0" />
        <mxCell id="TIW13-ViIwGv7jGZ9ARD-13" style="edgeStyle=none;rounded=0;orthogonalLoop=1;jettySize=auto;html=1;exitX=0.5;exitY=1;exitDx=0;exitDy=0;entryX=0.5;entryY=0;entryDx=0;entryDy=0;" edge="1" parent="1" source="TIW13-ViIwGv7jGZ9ARD-2" target="TIW13-ViIwGv7jGZ9ARD-9">
          <mxGeometry relative="1" as="geometry">
            <mxPoint x="-630" y="147.95000000000005" as="targetPoint" />
          </mxGeometry>
        </mxCell>
        <mxCell id="TIW13-ViIwGv7jGZ9ARD-2" value="Fighter" style="rounded=0;whiteSpace=wrap;html=1;" vertex="1" parent="1">
          <mxGeometry x="-740" y="20" width="180" height="70" as="geometry" />
        </mxCell>
        <mxCell id="TIW13-ViIwGv7jGZ9ARD-3" value="Fighter ability" style="rounded=0;whiteSpace=wrap;html=1;" vertex="1" parent="1">
          <mxGeometry x="-710" y="370" width="140" height="50" as="geometry" />
        </mxCell>
        <mxCell id="TIW13-ViIwGv7jGZ9ARD-34" style="edgeStyle=none;rounded=0;orthogonalLoop=1;jettySize=auto;html=1;exitX=0;exitY=0;exitDx=0;exitDy=0;entryX=0;entryY=1;entryDx=0;entryDy=0;" edge="1" parent="1" source="TIW13-ViIwGv7jGZ9ARD-4" target="TIW13-ViIwGv7jGZ9ARD-2">
          <mxGeometry relative="1" as="geometry" />
        </mxCell>
        <mxCell id="TIW13-ViIwGv7jGZ9ARD-4" value="Fighter character" style="rounded=1;whiteSpace=wrap;html=1;" vertex="1" parent="1">
          <mxGeometry x="-749.38" y="510" width="120" height="60" as="geometry" />
        </mxCell>
        <mxCell id="TIW13-ViIwGv7jGZ9ARD-6" value="" style="endArrow=classic;html=1;rounded=0;exitX=0.5;exitY=1;exitDx=0;exitDy=0;entryX=0.5;entryY=0;entryDx=0;entryDy=0;" edge="1" parent="1" source="TIW13-ViIwGv7jGZ9ARD-3" target="TIW13-ViIwGv7jGZ9ARD-4">
          <mxGeometry width="50" height="50" relative="1" as="geometry">
            <mxPoint x="260" y="280" as="sourcePoint" />
            <mxPoint x="310" y="230" as="targetPoint" />
          </mxGeometry>
        </mxCell>
        <mxCell id="TIW13-ViIwGv7jGZ9ARD-9" value="Fighter class" style="rounded=0;whiteSpace=wrap;html=1;" vertex="1" parent="1">
          <mxGeometry x="-680" y="200" width="110" height="60" as="geometry" />
        </mxCell>
        <mxCell id="TIW13-ViIwGv7jGZ9ARD-15" style="edgeStyle=none;rounded=0;orthogonalLoop=1;jettySize=auto;html=1;exitX=0.5;exitY=1;exitDx=0;exitDy=0;entryX=0.571;entryY=0;entryDx=0;entryDy=0;entryPerimeter=0;" edge="1" parent="1" source="TIW13-ViIwGv7jGZ9ARD-9" target="TIW13-ViIwGv7jGZ9ARD-3">
          <mxGeometry relative="1" as="geometry" />
        </mxCell>
        <mxCell id="TIW13-ViIwGv7jGZ9ARD-22" value="" style="shape=image;verticalLabelPosition=bottom;labelBackgroundColor=default;verticalAlign=top;aspect=fixed;imageAspect=0;image=data:image/png,iVBORw0KGgoAAAANSUhEUgAAANsAAABtCAYAAAAoEBQoAAAAAXNSR0IArs4c6QAAFdJJREFUeF7tXQtUk1e2BrRaBbW2tVJRUQLLSqUKVpFBRaWCz4DIIyHUoEGQIL5GW23xQa1tZ3TJzMWEhyLgI1pzZ6pznWHEt6iMLq7Lq4s714ojl9Fa9c5SL+ID1Ny7I7vr9J9EAvyPhOx/LVZC/vOfvc+3z3ce++xzflcXuggBQkAUBFxFkUJCCAFCwIXIRpWAEBAJASKbSECTGEKAyEZ1gBAQCQEim0hAkxhCgMhGdYAQEAkBIptIQJMYQoDIRnWAEBAJASKbSECTGEKAyEZ1gBAQCQEim0hAkxhCgMhGdYAQEAkBIptIQJMYQoDIRnWAEBAJASKbSECTGEKAyEZ1gBAQCQEim0hAkxhCgMhGdYAQEAkBIptIQJMYQoDIRnWAEBAJASKbSECTGEKAyEZ1gBAQCQEim0hAkxhCgMhGdYAQEAkBIptIQJMYQoDIRnWAEBAJASKbSECTGEKAyEZ1gBAQCQEim0hACyEmLy9v3ogRIy6GhIRcECJ/ypNfBIhs/OIpam5bt26dO3/+/O0BAQGXExISdiUkJBj8/PxuiKoECbMZAYcgW3V1dZfHjx8Peeutt+4OHjz4R5tL18ET5ubmzl22bNn2pqYmc0nd3NxcQkNDTyiVyt3p6eklrq6uzzo4BA5VPLsj25YtW1IuXbo0oq6ubvAPP/zg9/333/s9f/7cBStU586dXby8vOpkMtnV/v37X/f29v67QqEwvP/++zUOhTwPyur1+rmZmZnbAR9XV1cXk8nk0qVLF5fGxkaX1157zUUul3+rVqv3yOXyAzyIoyzaiYBdkK2iomL4gQMH5uzatWvO7du334ZKw72g1Ybf8R5ULiAeVDT4LTExcQ8Mo+Ry+cF2YuIwj8OcTavVFoHCgAXbw7148cJMOPjN09PzcVxcXJFKpdo9ZsyYvzhMATuYopKSrbS0NMFoNM45ePDgNC6ur7/+usuTJ0/MQyP2YgmHQyeoWJAOPkNDQ6umTZu297PPPvuNq6vr8w5mr58VR6fTaTIyMrbBj506dTKXH/ABkj179sz8HXs8xGfYsGE1SqWyZMaMGYbhw4df78j42FvZJCNbZmZmrl6vXwg9E7TKUCmwZUaiWQML0sJlqQfEYVRISEhlTk5O5pgxY/7d3kDnSx+9Xp+SmZm5FTCEC3syJB8QDDAFfAErHG7CfcBw/PjxlSqVqmTChAmlfn5+T/nSi/KxjIAkZPvoo4+OHDlyJByNjqTx8PBwefjwoVlTdpjITQctOHthJevevbvLo0ePzLfge1NTU6NOp0tLTU0t6YgVQKfTzc/IyCgEMkFP1tLFkhEJiUSNj483JiUl7ab5XUsotv2+qGSrqqoaGBISUtvU1OSKwxoc5kAR2DmYLRUIhk5AVC75sHdDWFauXJnzzTffLGs7TPb5pF6vT9VqtQUsiXCUACQCXLp27ery9Ok/d1pswwbPwwW9YO/evR9pNJrt0dHRu8eOHUvzOx5NLxrZsrKyPt2wYcPXJpPJLJMlBBAPSAcVhOsIwV4N08D/UImQYOyQEtIAAaHSIJkRq7CwsPKTJ09G8oid5Fnl5eWlabXafHZuxioFWOAwHb4D6bBxw3tsepwfI7YBAQH/mZCQsHv69OmGwMDAWskL7OAKiEK2kydPBoSFhf2Hm5ubK9fBgT0YtK7YGiNRuMa3hrW14RESF54DuevXr1+zevXq9Q5us5/UB7JlZGTko4MIGyLAlG2Q8AHEGokGxAOMcCjJDi1ZMsKQPDAw8HhycvLulJQUWL/r0I4noeqHKGR744036u/fv+/BNS77P7cnYgvMDi/hd5aMUKm4HjccOrF54vfDhw9PmTx58iGhABUzXyBbenp6vtAyWeLBiEQul+9RKpV7Z8+e/QehZXek/AUn29SpU/9YVlY2jZ2bsb0YgokGBWOi1wwm/ezcjtsKs8NR7jwNW2kgI+QNeaEOV65cGTpkyJD/cnRDikU2dgiPw1LArlevXg1KpXL77NmzDRMnTqT5XQsVSlCyrV+/fsXq1at/DcZConDd9UA8uGdpEu/l5VUfEBBwbuTIkeeHDh16+unTp/3Pnz8fUlFRMb6mpkYGkRJsT4ceTFxCQHLh8Al70pCQkLP79u2b3K9fv5euSwe9xCAb20giTOyIARoyuIYOHfrXpKQkAzhW3nvvPVq/s1CnBCNbVVXV26NHj76LhoEehu19wIjY46BeSIbFixdvSk5OLvrggw+s9j5Xr17t/9133ylWrly5EWRAz8XO3SAv+MNIClzkBVnwu0ajyd+2bVu6g/LMrDa6/sUoA3e+x8pkyQdrpMHBwadgGSElJaXY1dX1ZeAmXS6CkW358uVfbNq0aTWLMRvlgMZDJwbc8/DwaNi/f//UCRMmVNhqm9OnT4+ByPeampqh2KPBnA16PW4vyhLQ19f34dWrV99w5Mk+LGprtdqttmLVlnRc5xMSi/V04hof6w0GWUC8WbNm7YuLizPExMQ4fXymYGQbNGhQ3a1btwbA8BCMAEaD71xnB1aA+Pj43fv27UtqS4WAZ5YvX/5Vbm7uKnY4Cj0pEA5ICPLhO7v4W1BQkJaWllbYVplSPycG2bhlRPKxvRnYFP7HYb2lXs/Ly6shOjq6CDyao0aNOi81dlLIF4RsRUVFGo1G81PMHuta5vZ0cC86OvrE/v37J7YXAIPBEK1Sqb6DHgx6t8ePH5uzhO9AOFw/Qm/lpEmTKo4dOza+vXKleh4XtYWUb2l5AOThsgw0YFzHFXfJBed1uI7q7+9/OTExEeZ3pf7+/reE1N+e8haEbCEhIScrKyvHc4eNuLCKxoLK7+7u7tLQ0MCbHitWrNi4cePG5WyFYCNM2MgUqEg3btwY6OXl9Xd7Moqtuuj1+gVarTbP1vRtTccuteD8mF2rg3xxyM72eBhwYO0+pA0PDz8MC+cpKSmlbdXPUZ7jrZJjgU+ePPmLsLCwMywA7Lif68natGnToqVLl+byCVhwcPC58+fPj7YUqMyVk52dvW7t2rXZfMoXK6+CgoL0tLQ0vVjyhJCDdaNTp04m6O1gGSE6OvpPQsiSOk/eyVZSUqJKTk7eBQVj3cbsOhrMm6C3mTNnzs4dO3bM4RuEo0eP/iI8PPzMqxbKUWa3bt1cYKvJo0ePILrZrXPnzoCJW1NTU6dOnTq5NYeXwT4fiH5xc33ZXFvDzQSXq6sr5PXTn8lket78G2zUg/vmDXuQtlkP+PxZns1yzLfd3EAN83YZ0/Pnz02AX/fu3U21tbX979696843flLnN3DgwP+JiYnZFRsbC/GZVVLrw5d83sm2Zs2aVV988cVXqCAuiHLnbdCibdu2TaFWq7/lqzBsPoMHD667fv36gJbyflXAs6U1ppbyE/M+11Mopmy+ZCHGuAePO//z9/e/qFaroccr9fX1vcOXXCny4Z1sCxYsyM/Pz09DENkJNjcOEo488PX1FeQ4A7lc/ueDBw9GcncEcEHG3g8jVzB6BR0A1pw7YhkL9WPXuWCUYMnzJ5ZOQshh54WQP+u9xuifCRMmHJo3b57h448/3iGEDkLnyTvZIiIiysvLyydzh3Dsuhrc69at2536+vq+QhUwJSXlt0VFRYtamrdZi4K3FBUvlK625MvubmgeWv7T1iJb8rHXNNgowye7PGPJDh4eHs+io6MNSqVyz/Tp0/9sr2Xi6sU72by8vK7dvHnTBysERvlzh2RxcXEHjUbjTKGAys/P1yxYsMC8/NDSZWkfHTYWrEetpXyEuI9RMJA3uzfNUiyoEPKFztPankTuArmFdOb57jvvvHMzPj5+p1qt3jZq1Ki/Ca1ve/LnnWzu7u6mhoYGs07caHwMQIZ74AVcvXq1YF7AsrKyUTNmzDhv6zAQo0vQtQ2f+L09ALf3WbZlx8gYxLWlXru9ssV8nm2M2S1C3CAIdnMsOIxw8zB8Dw0N3R8bG7t3yZIlRjF1t1UW72Tr169fze3bt2Xs8WqoDC52AkBTp049VFZWNsVWRVubzta4QUsOEmutbWt14Cs9u16JIwZ2axFfcqTIBxsTNmwPh5HsPSAjp+E092wymeyviYmJO2fNmlUUFBR0V4oy2CqTd7JNnDjx0PHjxyPYSsyt0OBu79q16//ev3+/l62KtjbdwoULc7ds2bIQnmMdM+xxbzjEtbaZ0palg9bq1dr0lhxNrc1D6vTc+Sb3f+5mV7ZRZgmHzq4333zzXlxc3B6FQrHTkbb28E42jUaj2759u5Yd4lhzQly+fHl4QEDAJSEqw7hx445UVlaGQyvJkh29jGg49uQpHPrCfIgN7xJCP1vz5FZMbi9naz72kI6LPTvVwB4bvZBsD97cYJpmzpxpVKlUsP72b/ZQntbqwDvZsrOzV6xdu/bXlhSBig0XbofR6XSpqampgkStv/vuu7du3brlCfLYYSFbebnRLEAyjKdE/aV2kLCnHLOVk9tItNbwYqVn55xsj8WS6VUNSGho6ClwgCxevNgmZ5dY5WqLHN7JVlhYGJ+amvotes7YbS1cBceNG3e6oqJiXFsUf9UzxcXFMampqb/DIaOltOhq7tu3L2x8vNjY2AhhGi8aGxtNPXr0cHv27Jk5auTFixfmTwjkaP5EzNhIEvyOnxBpYo4+aZ7Ew/wCIkrg7A78xO/mSBMrUSUQLWLq2rWrOTIFvkPgSXMUyrPa2lrZjRs3+vGNH5/5WQsMgN+RZOxaKDR4Pj4+NbGxsSUxMTHFQUFBP/Cpj5R58U62U6dOjQ4LCzvHDiO5Dge2R8nKytrw5ZdfZvEJQu/evR88ePCgp6XTk1EvGK7AwvC6deuy1/3/xad8sfIqKSmZm5ycvF0see2R01I0Tp8+fZ5PmzatUK1Wl06aNOlce2TZ67O8kw0KOnbs2GOnT5+eyB5HgMet4fABFy+b15G68LWjNz4+vsRoNKq5ZGe9o6xD5Nq1a4N8fHz+214N9Cq9cnJykpcuXVrsSLoD9kg86NFmzZq1PzExsTQ2Nna/I5WjLboKQjadTjcnMzOzFA/bsXSQKtvSwZkglZWVoW0pAPvM1q1bY+bPn/876DmB6BjSxI1CQNnh4eHHjx49Oqm9cqV6vqCgQJ2WlmbXpz1znSJgi5EjR15UqVTbFi1alNccoC0VhKLKFYRsUAJvb++/wWuf2B6GDdnCdROs+ImJiTsMBoO6raX/9NNP1+fk5GQBwVjvJ+SH6zNsVAgYPTc3NzU9PV0QB01by9Ga5xyBbGgLPz+/+wqFYotCoSh1xtd7gV0FI9vnn3++ZsOGDdkINvfMEQxDYudzPXv2/IfRaJRHRkaetbXSweumli1bVlJVVTWCzROHjehNxEk4Rsr37dv33u3bt9+0VY49ptPr9WqtVtvuno27vIBl5QZBw+84SuB+wj022gNwhjNIEhMTi2JiYnZERkaeskcMxdRJMLJduHDBOzg4+Dqc688aj91Gzz1tCxa74cUYn3zyya9iY2N3jh49utoaGNXV1Z7l5eVxS5cu/Rc2DXoZ8XxDjEbgvhlHq9Vu0ev1mWKCzbcsPsjGXYMEErFeXNaZxWKIa5FgT25IWVhY2J9SU1NhHraP7zI7cn6CkQ1Ayc7O/uXatWs3cSME0O3Lnspk6egCMPSgQYOuBAYGXvX19b107969t6uqqobV1tYOq6+v74ln+uMZI3ioK8Y0cltfJHdYWNjZEydOjEV3u6MaUKfTJWdkZLTbQQI4scNttA8Ov4FQuJRjaQ8d2DcoKKgmKSkpNz4+vsjT0/NlcCxdP0NAULKBpMjIyIOHDh2ajkMQ1qjwHQmAUd7s+Y7QkrKv+OXajhtOxa7psWFOOLxEedXV1b5+fn7XHL0u8EU2tA3Oo3GebWmoCGkxINrHx8dFpVL9Si6X7/7www8vOzqeQusvONmgAO7u7g8bGhrckRxs9Dr0aNzYSUuvOQLDW9s0iS0xfLIvVIRj7VgHDRDbaDRGREVFHRYaWDHyh3dqa7Xadq2zWdpJz0ansLGJkLZHjx4uUVFRpRD8GxERcVSMcnYUGaKQraysLCQqKuos6ylE4llrPS0FoLKg41YLbpQIDHOAwDgEwsk/yIPF81WrVm3oKMbjs2eztOjMjg5mzJhRHhMTUzp37lxDR8FP7HKIQjYoFJxN8vXXX3+F5ABnCDcOEXo0IIm1nbrcuR/ky31JB1tpWAfMpEmTDh87dixCbICFlMcH2dhRBAzboUGExgpeliiTyWo1Gs1vp0+fXiyTyR4IWRZnyFs0sgGYZ86cGTZ+/PhLEDOIZ/BjD8S+3BCGftyhJTs/s7Sxkw1m5Qa/LlmyZPPmzZt/2dEMygfZABMWa5lM9kyhUGxSKBR7hNqR0dHsYGt5RCUbKPXjjz+6JyQk/P7UqVMR6LjA3oj7YgwM8bK2IxnTc93X+BzcLywsTIZ4O1sBcaR0SDZuQ4QNF4ZG4S4LPH6dO2SEYOyIiAg4GtwQHh5+zJEwcCRdRScbgpOenp6Tl5e3BP/nvhcaT1Rit2XgGh08gxXK0gQf7gcHB1du3rxZGxoaetGRDNIaXcFBsnDhwu3YGMEnHglnrYFivb/wsnqlUmlISEig9bDWAN/GtJKRDfTdu3evori4WFVeXj4DF0cxQBnuW9spzV0XgrT4Eo0RI0ZciIqK2p2VlbW5jZg4zGM6nU6TkZFh3ufFvoSedQrBMB0JBmn8/f3/olard8bFxRUPGDDg5csQ6BIFAUnJhiU8c+bMCKPRqDIYDKo7d+68y6043JArS8ioVCpDVFSUIT4+/o+iIGcHQuAtNsuWLdv65MkTszY4V0Vy4XDR29v7ulKp3BUXF7dj5MiRgpzTaQdw2L0KdkE2RMlkMr1WWFioPnfu3Ii6urpBdXV1PnV1dX5NTU2d0ZEC3jNPT8+bQ4YMuQKVaMCAAXWwk9cZ33aJr4zCnh4PAYLPPn36PJ45c+ZOpVK5c/LkyaftviY6gYJ2RTZreF+7dq1XfX29T48ePf4hk8nqnMAuNhURXhm1ZMmSAvZ05ClTphxISkralZSU9K82ZUKJREPAIcgmGhoOJgiP6wsKCjqr0Wh2y+VymofZsQ2JbHZsnJZUy8vLmzdmzJhjgYGBtS2lpfvSI0Bkk94GpIGTIEBkcxJDUzGlR4DIJr0NSAMnQYDI5iSGpmJKjwCRTXobkAZOggCRzUkMTcWUHgEim/Q2IA2cBAEim5MYmoopPQJENultQBo4CQJENicxNBVTegSIbNLbgDRwEgSIbE5iaCqm9AgQ2aS3AWngJAgQ2ZzE0FRM6REgsklvA9LASRAgsjmJoamY0iNAZJPeBqSBkyBAZHMSQ1MxpUeAyCa9DUgDJ0GAyOYkhqZiSo8AkU16G5AGToIAkc1JDE3FlB4BIpv0NiANnAQBIpuTGJqKKT0CRDbpbUAaOAkCRDYnMTQVU3oEiGzS24A0cBIEiGxOYmgqpvQIENmktwFp4CQI/B8z3f4EmFO1ZAAAAABJRU5ErkJggg==;rotation=75;" vertex="1" parent="1">
          <mxGeometry x="-640" y="126.13999999999999" width="43.83" height="21.81" as="geometry" />
        </mxCell>
        <mxCell id="TIW13-ViIwGv7jGZ9ARD-23" value="class, class health, attack , magic, defense" style="text;strokeColor=none;align=center;fillColor=none;html=1;verticalAlign=middle;whiteSpace=wrap;rounded=0;" vertex="1" parent="1">
          <mxGeometry x="-614" y="290" width="300" height="30" as="geometry" />
        </mxCell>
        <mxCell id="TIW13-ViIwGv7jGZ9ARD-26" style="edgeStyle=none;rounded=0;orthogonalLoop=1;jettySize=auto;html=1;exitX=0.5;exitY=1;exitDx=0;exitDy=0;" edge="1" parent="1" source="TIW13-ViIwGv7jGZ9ARD-23" target="TIW13-ViIwGv7jGZ9ARD-23">
          <mxGeometry relative="1" as="geometry" />
        </mxCell>
        <mxCell id="TIW13-ViIwGv7jGZ9ARD-27" value="set health, attack, magic, defense, abilities" style="text;strokeColor=none;align=center;fillColor=none;html=1;verticalAlign=middle;whiteSpace=wrap;rounded=0;" vertex="1" parent="1">
          <mxGeometry x="-614" y="109" width="244" height="30" as="geometry" />
        </mxCell>
        <mxCell id="TIW13-ViIwGv7jGZ9ARD-28" value="" style="shape=image;verticalLabelPosition=bottom;labelBackgroundColor=default;verticalAlign=top;aspect=fixed;imageAspect=0;image=data:image/png,iVBORw0KGgoAAAANSUhEUgAAANsAAABtCAYAAAAoEBQoAAAAAXNSR0IArs4c6QAAFdJJREFUeF7tXQtUk1e2BrRaBbW2tVJRUQLLSqUKVpFBRaWCz4DIIyHUoEGQIL5GW23xQa1tZ3TJzMWEhyLgI1pzZ6pznWHEt6iMLq7Lq4s714ojl9Fa9c5SL+ID1Ny7I7vr9J9EAvyPhOx/LVZC/vOfvc+3z3ce++xzflcXuggBQkAUBFxFkUJCCAFCwIXIRpWAEBAJASKbSECTGEKAyEZ1gBAQCQEim0hAkxhCgMhGdYAQEAkBIptIQJMYQoDIRnWAEBAJASKbSECTGEKAyEZ1gBAQCQEim0hAkxhCgMhGdYAQEAkBIptIQJMYQoDIRnWAEBAJASKbSECTGEKAyEZ1gBAQCQEim0hAkxhCgMhGdYAQEAkBIptIQJMYQoDIRnWAEBAJASKbSECTGEKAyEZ1gBAQCQEim0hAkxhCgMhGdYAQEAkBIptIQJMYQoDIRnWAEBAJASKbSECTGEKAyEZ1gBAQCQEim0hACyEmLy9v3ogRIy6GhIRcECJ/ypNfBIhs/OIpam5bt26dO3/+/O0BAQGXExISdiUkJBj8/PxuiKoECbMZAYcgW3V1dZfHjx8Peeutt+4OHjz4R5tL18ET5ubmzl22bNn2pqYmc0nd3NxcQkNDTyiVyt3p6eklrq6uzzo4BA5VPLsj25YtW1IuXbo0oq6ubvAPP/zg9/333/s9f/7cBStU586dXby8vOpkMtnV/v37X/f29v67QqEwvP/++zUOhTwPyur1+rmZmZnbAR9XV1cXk8nk0qVLF5fGxkaX1157zUUul3+rVqv3yOXyAzyIoyzaiYBdkK2iomL4gQMH5uzatWvO7du334ZKw72g1Ybf8R5ULiAeVDT4LTExcQ8Mo+Ry+cF2YuIwj8OcTavVFoHCgAXbw7148cJMOPjN09PzcVxcXJFKpdo9ZsyYvzhMATuYopKSrbS0NMFoNM45ePDgNC6ur7/+usuTJ0/MQyP2YgmHQyeoWJAOPkNDQ6umTZu297PPPvuNq6vr8w5mr58VR6fTaTIyMrbBj506dTKXH/ABkj179sz8HXs8xGfYsGE1SqWyZMaMGYbhw4df78j42FvZJCNbZmZmrl6vXwg9E7TKUCmwZUaiWQML0sJlqQfEYVRISEhlTk5O5pgxY/7d3kDnSx+9Xp+SmZm5FTCEC3syJB8QDDAFfAErHG7CfcBw/PjxlSqVqmTChAmlfn5+T/nSi/KxjIAkZPvoo4+OHDlyJByNjqTx8PBwefjwoVlTdpjITQctOHthJevevbvLo0ePzLfge1NTU6NOp0tLTU0t6YgVQKfTzc/IyCgEMkFP1tLFkhEJiUSNj483JiUl7ab5XUsotv2+qGSrqqoaGBISUtvU1OSKwxoc5kAR2DmYLRUIhk5AVC75sHdDWFauXJnzzTffLGs7TPb5pF6vT9VqtQUsiXCUACQCXLp27ery9Ok/d1pswwbPwwW9YO/evR9pNJrt0dHRu8eOHUvzOx5NLxrZsrKyPt2wYcPXJpPJLJMlBBAPSAcVhOsIwV4N08D/UImQYOyQEtIAAaHSIJkRq7CwsPKTJ09G8oid5Fnl5eWlabXafHZuxioFWOAwHb4D6bBxw3tsepwfI7YBAQH/mZCQsHv69OmGwMDAWskL7OAKiEK2kydPBoSFhf2Hm5ubK9fBgT0YtK7YGiNRuMa3hrW14RESF54DuevXr1+zevXq9Q5us5/UB7JlZGTko4MIGyLAlG2Q8AHEGokGxAOMcCjJDi1ZMsKQPDAw8HhycvLulJQUWL/r0I4noeqHKGR744036u/fv+/BNS77P7cnYgvMDi/hd5aMUKm4HjccOrF54vfDhw9PmTx58iGhABUzXyBbenp6vtAyWeLBiEQul+9RKpV7Z8+e/QehZXek/AUn29SpU/9YVlY2jZ2bsb0YgokGBWOi1wwm/ezcjtsKs8NR7jwNW2kgI+QNeaEOV65cGTpkyJD/cnRDikU2dgiPw1LArlevXg1KpXL77NmzDRMnTqT5XQsVSlCyrV+/fsXq1at/DcZConDd9UA8uGdpEu/l5VUfEBBwbuTIkeeHDh16+unTp/3Pnz8fUlFRMb6mpkYGkRJsT4ceTFxCQHLh8Al70pCQkLP79u2b3K9fv5euSwe9xCAb20giTOyIARoyuIYOHfrXpKQkAzhW3nvvPVq/s1CnBCNbVVXV26NHj76LhoEehu19wIjY46BeSIbFixdvSk5OLvrggw+s9j5Xr17t/9133ylWrly5EWRAz8XO3SAv+MNIClzkBVnwu0ajyd+2bVu6g/LMrDa6/sUoA3e+x8pkyQdrpMHBwadgGSElJaXY1dX1ZeAmXS6CkW358uVfbNq0aTWLMRvlgMZDJwbc8/DwaNi/f//UCRMmVNhqm9OnT4+ByPeampqh2KPBnA16PW4vyhLQ19f34dWrV99w5Mk+LGprtdqttmLVlnRc5xMSi/V04hof6w0GWUC8WbNm7YuLizPExMQ4fXymYGQbNGhQ3a1btwbA8BCMAEaD71xnB1aA+Pj43fv27UtqS4WAZ5YvX/5Vbm7uKnY4Cj0pEA5ICPLhO7v4W1BQkJaWllbYVplSPycG2bhlRPKxvRnYFP7HYb2lXs/Ly6shOjq6CDyao0aNOi81dlLIF4RsRUVFGo1G81PMHuta5vZ0cC86OvrE/v37J7YXAIPBEK1Sqb6DHgx6t8ePH5uzhO9AOFw/Qm/lpEmTKo4dOza+vXKleh4XtYWUb2l5AOThsgw0YFzHFXfJBed1uI7q7+9/OTExEeZ3pf7+/reE1N+e8haEbCEhIScrKyvHc4eNuLCKxoLK7+7u7tLQ0MCbHitWrNi4cePG5WyFYCNM2MgUqEg3btwY6OXl9Xd7Moqtuuj1+gVarTbP1vRtTccuteD8mF2rg3xxyM72eBhwYO0+pA0PDz8MC+cpKSmlbdXPUZ7jrZJjgU+ePPmLsLCwMywA7Lif68natGnToqVLl+byCVhwcPC58+fPj7YUqMyVk52dvW7t2rXZfMoXK6+CgoL0tLQ0vVjyhJCDdaNTp04m6O1gGSE6OvpPQsiSOk/eyVZSUqJKTk7eBQVj3cbsOhrMm6C3mTNnzs4dO3bM4RuEo0eP/iI8PPzMqxbKUWa3bt1cYKvJo0ePILrZrXPnzoCJW1NTU6dOnTq5NYeXwT4fiH5xc33ZXFvDzQSXq6sr5PXTn8lket78G2zUg/vmDXuQtlkP+PxZns1yzLfd3EAN83YZ0/Pnz02AX/fu3U21tbX979696843flLnN3DgwP+JiYnZFRsbC/GZVVLrw5d83sm2Zs2aVV988cVXqCAuiHLnbdCibdu2TaFWq7/lqzBsPoMHD667fv36gJbyflXAs6U1ppbyE/M+11Mopmy+ZCHGuAePO//z9/e/qFaroccr9fX1vcOXXCny4Z1sCxYsyM/Pz09DENkJNjcOEo488PX1FeQ4A7lc/ueDBw9GcncEcEHG3g8jVzB6BR0A1pw7YhkL9WPXuWCUYMnzJ5ZOQshh54WQP+u9xuifCRMmHJo3b57h448/3iGEDkLnyTvZIiIiysvLyydzh3Dsuhrc69at2536+vq+QhUwJSXlt0VFRYtamrdZi4K3FBUvlK625MvubmgeWv7T1iJb8rHXNNgowye7PGPJDh4eHs+io6MNSqVyz/Tp0/9sr2Xi6sU72by8vK7dvHnTBysERvlzh2RxcXEHjUbjTKGAys/P1yxYsMC8/NDSZWkfHTYWrEetpXyEuI9RMJA3uzfNUiyoEPKFztPankTuArmFdOb57jvvvHMzPj5+p1qt3jZq1Ki/Ca1ve/LnnWzu7u6mhoYGs07caHwMQIZ74AVcvXq1YF7AsrKyUTNmzDhv6zAQo0vQtQ2f+L09ALf3WbZlx8gYxLWlXru9ssV8nm2M2S1C3CAIdnMsOIxw8zB8Dw0N3R8bG7t3yZIlRjF1t1UW72Tr169fze3bt2Xs8WqoDC52AkBTp049VFZWNsVWRVubzta4QUsOEmutbWt14Cs9u16JIwZ2axFfcqTIBxsTNmwPh5HsPSAjp+E092wymeyviYmJO2fNmlUUFBR0V4oy2CqTd7JNnDjx0PHjxyPYSsyt0OBu79q16//ev3+/l62KtjbdwoULc7ds2bIQnmMdM+xxbzjEtbaZ0palg9bq1dr0lhxNrc1D6vTc+Sb3f+5mV7ZRZgmHzq4333zzXlxc3B6FQrHTkbb28E42jUaj2759u5Yd4lhzQly+fHl4QEDAJSEqw7hx445UVlaGQyvJkh29jGg49uQpHPrCfIgN7xJCP1vz5FZMbi9naz72kI6LPTvVwB4bvZBsD97cYJpmzpxpVKlUsP72b/ZQntbqwDvZsrOzV6xdu/bXlhSBig0XbofR6XSpqampgkStv/vuu7du3brlCfLYYSFbebnRLEAyjKdE/aV2kLCnHLOVk9tItNbwYqVn55xsj8WS6VUNSGho6ClwgCxevNgmZ5dY5WqLHN7JVlhYGJ+amvotes7YbS1cBceNG3e6oqJiXFsUf9UzxcXFMampqb/DIaOltOhq7tu3L2x8vNjY2AhhGi8aGxtNPXr0cHv27Jk5auTFixfmTwjkaP5EzNhIEvyOnxBpYo4+aZ7Ew/wCIkrg7A78xO/mSBMrUSUQLWLq2rWrOTIFvkPgSXMUyrPa2lrZjRs3+vGNH5/5WQsMgN+RZOxaKDR4Pj4+NbGxsSUxMTHFQUFBP/Cpj5R58U62U6dOjQ4LCzvHDiO5Dge2R8nKytrw5ZdfZvEJQu/evR88ePCgp6XTk1EvGK7AwvC6deuy1/3/xad8sfIqKSmZm5ycvF0see2R01I0Tp8+fZ5PmzatUK1Wl06aNOlce2TZ67O8kw0KOnbs2GOnT5+eyB5HgMet4fABFy+b15G68LWjNz4+vsRoNKq5ZGe9o6xD5Nq1a4N8fHz+214N9Cq9cnJykpcuXVrsSLoD9kg86NFmzZq1PzExsTQ2Nna/I5WjLboKQjadTjcnMzOzFA/bsXSQKtvSwZkglZWVoW0pAPvM1q1bY+bPn/876DmB6BjSxI1CQNnh4eHHjx49Oqm9cqV6vqCgQJ2WlmbXpz1znSJgi5EjR15UqVTbFi1alNccoC0VhKLKFYRsUAJvb++/wWuf2B6GDdnCdROs+ImJiTsMBoO6raX/9NNP1+fk5GQBwVjvJ+SH6zNsVAgYPTc3NzU9PV0QB01by9Ga5xyBbGgLPz+/+wqFYotCoSh1xtd7gV0FI9vnn3++ZsOGDdkINvfMEQxDYudzPXv2/IfRaJRHRkaetbXSweumli1bVlJVVTWCzROHjehNxEk4Rsr37dv33u3bt9+0VY49ptPr9WqtVtvuno27vIBl5QZBw+84SuB+wj022gNwhjNIEhMTi2JiYnZERkaeskcMxdRJMLJduHDBOzg4+Dqc688aj91Gzz1tCxa74cUYn3zyya9iY2N3jh49utoaGNXV1Z7l5eVxS5cu/Rc2DXoZ8XxDjEbgvhlHq9Vu0ev1mWKCzbcsPsjGXYMEErFeXNaZxWKIa5FgT25IWVhY2J9SU1NhHraP7zI7cn6CkQ1Ayc7O/uXatWs3cSME0O3Lnspk6egCMPSgQYOuBAYGXvX19b107969t6uqqobV1tYOq6+v74ln+uMZI3ioK8Y0cltfJHdYWNjZEydOjEV3u6MaUKfTJWdkZLTbQQI4scNttA8Ov4FQuJRjaQ8d2DcoKKgmKSkpNz4+vsjT0/NlcCxdP0NAULKBpMjIyIOHDh2ajkMQ1qjwHQmAUd7s+Y7QkrKv+OXajhtOxa7psWFOOLxEedXV1b5+fn7XHL0u8EU2tA3Oo3GebWmoCGkxINrHx8dFpVL9Si6X7/7www8vOzqeQusvONmgAO7u7g8bGhrckRxs9Dr0aNzYSUuvOQLDW9s0iS0xfLIvVIRj7VgHDRDbaDRGREVFHRYaWDHyh3dqa7Xadq2zWdpJz0ansLGJkLZHjx4uUVFRpRD8GxERcVSMcnYUGaKQraysLCQqKuos6ylE4llrPS0FoLKg41YLbpQIDHOAwDgEwsk/yIPF81WrVm3oKMbjs2eztOjMjg5mzJhRHhMTUzp37lxDR8FP7HKIQjYoFJxN8vXXX3+F5ABnCDcOEXo0IIm1nbrcuR/ky31JB1tpWAfMpEmTDh87dixCbICFlMcH2dhRBAzboUGExgpeliiTyWo1Gs1vp0+fXiyTyR4IWRZnyFs0sgGYZ86cGTZ+/PhLEDOIZ/BjD8S+3BCGftyhJTs/s7Sxkw1m5Qa/LlmyZPPmzZt/2dEMygfZABMWa5lM9kyhUGxSKBR7hNqR0dHsYGt5RCUbKPXjjz+6JyQk/P7UqVMR6LjA3oj7YgwM8bK2IxnTc93X+BzcLywsTIZ4O1sBcaR0SDZuQ4QNF4ZG4S4LPH6dO2SEYOyIiAg4GtwQHh5+zJEwcCRdRScbgpOenp6Tl5e3BP/nvhcaT1Rit2XgGh08gxXK0gQf7gcHB1du3rxZGxoaetGRDNIaXcFBsnDhwu3YGMEnHglnrYFivb/wsnqlUmlISEig9bDWAN/GtJKRDfTdu3evori4WFVeXj4DF0cxQBnuW9spzV0XgrT4Eo0RI0ZciIqK2p2VlbW5jZg4zGM6nU6TkZFh3ufFvoSedQrBMB0JBmn8/f3/olard8bFxRUPGDDg5csQ6BIFAUnJhiU8c+bMCKPRqDIYDKo7d+68y6043JArS8ioVCpDVFSUIT4+/o+iIGcHQuAtNsuWLdv65MkTszY4V0Vy4XDR29v7ulKp3BUXF7dj5MiRgpzTaQdw2L0KdkE2RMlkMr1WWFioPnfu3Ii6urpBdXV1PnV1dX5NTU2d0ZEC3jNPT8+bQ4YMuQKVaMCAAXWwk9cZ33aJr4zCnh4PAYLPPn36PJ45c+ZOpVK5c/LkyaftviY6gYJ2RTZreF+7dq1XfX29T48ePf4hk8nqnMAuNhURXhm1ZMmSAvZ05ClTphxISkralZSU9K82ZUKJREPAIcgmGhoOJgiP6wsKCjqr0Wh2y+VymofZsQ2JbHZsnJZUy8vLmzdmzJhjgYGBtS2lpfvSI0Bkk94GpIGTIEBkcxJDUzGlR4DIJr0NSAMnQYDI5iSGpmJKjwCRTXobkAZOggCRzUkMTcWUHgEim/Q2IA2cBAEim5MYmoopPQJENultQBo4CQJENicxNBVTegSIbNLbgDRwEgSIbE5iaCqm9AgQ2aS3AWngJAgQ2ZzE0FRM6REgsklvA9LASRAgsjmJoamY0iNAZJPeBqSBkyBAZHMSQ1MxpUeAyCa9DUgDJ0GAyOYkhqZiSo8AkU16G5AGToIAkc1JDE3FlB4BIpv0NiANnAQBIpuTGJqKKT0CRDbpbUAaOAkCRDYnMTQVU3oEiGzS24A0cBIEiGxOYmgqpvQIENmktwFp4CQI/B8z3f4EmFO1ZAAAAABJRU5ErkJggg==;rotation=75;" vertex="1" parent="1">
          <mxGeometry x="-629.3795594908959" y="300.9956861699679" width="43.83" height="21.81" as="geometry" />
        </mxCell>
        <mxCell id="TIW13-ViIwGv7jGZ9ARD-29" value="" style="shape=image;verticalLabelPosition=bottom;labelBackgroundColor=default;verticalAlign=top;aspect=fixed;imageAspect=0;image=data:image/png,iVBORw0KGgoAAAANSUhEUgAAANsAAABtCAYAAAAoEBQoAAAAAXNSR0IArs4c6QAAFdJJREFUeF7tXQtUk1e2BrRaBbW2tVJRUQLLSqUKVpFBRaWCz4DIIyHUoEGQIL5GW23xQa1tZ3TJzMWEhyLgI1pzZ6pznWHEt6iMLq7Lq4s714ojl9Fa9c5SL+ID1Ny7I7vr9J9EAvyPhOx/LVZC/vOfvc+3z3ce++xzflcXuggBQkAUBFxFkUJCCAFCwIXIRpWAEBAJASKbSECTGEKAyEZ1gBAQCQEim0hAkxhCgMhGdYAQEAkBIptIQJMYQoDIRnWAEBAJASKbSECTGEKAyEZ1gBAQCQEim0hAkxhCgMhGdYAQEAkBIptIQJMYQoDIRnWAEBAJASKbSECTGEKAyEZ1gBAQCQEim0hAkxhCgMhGdYAQEAkBIptIQJMYQoDIRnWAEBAJASKbSECTGEKAyEZ1gBAQCQEim0hAkxhCgMhGdYAQEAkBIptIQJMYQoDIRnWAEBAJASKbSECTGEKAyEZ1gBAQCQEim0hACyEmLy9v3ogRIy6GhIRcECJ/ypNfBIhs/OIpam5bt26dO3/+/O0BAQGXExISdiUkJBj8/PxuiKoECbMZAYcgW3V1dZfHjx8Peeutt+4OHjz4R5tL18ET5ubmzl22bNn2pqYmc0nd3NxcQkNDTyiVyt3p6eklrq6uzzo4BA5VPLsj25YtW1IuXbo0oq6ubvAPP/zg9/333/s9f/7cBStU586dXby8vOpkMtnV/v37X/f29v67QqEwvP/++zUOhTwPyur1+rmZmZnbAR9XV1cXk8nk0qVLF5fGxkaX1157zUUul3+rVqv3yOXyAzyIoyzaiYBdkK2iomL4gQMH5uzatWvO7du334ZKw72g1Ybf8R5ULiAeVDT4LTExcQ8Mo+Ry+cF2YuIwj8OcTavVFoHCgAXbw7148cJMOPjN09PzcVxcXJFKpdo9ZsyYvzhMATuYopKSrbS0NMFoNM45ePDgNC6ur7/+usuTJ0/MQyP2YgmHQyeoWJAOPkNDQ6umTZu297PPPvuNq6vr8w5mr58VR6fTaTIyMrbBj506dTKXH/ABkj179sz8HXs8xGfYsGE1SqWyZMaMGYbhw4df78j42FvZJCNbZmZmrl6vXwg9E7TKUCmwZUaiWQML0sJlqQfEYVRISEhlTk5O5pgxY/7d3kDnSx+9Xp+SmZm5FTCEC3syJB8QDDAFfAErHG7CfcBw/PjxlSqVqmTChAmlfn5+T/nSi/KxjIAkZPvoo4+OHDlyJByNjqTx8PBwefjwoVlTdpjITQctOHthJevevbvLo0ePzLfge1NTU6NOp0tLTU0t6YgVQKfTzc/IyCgEMkFP1tLFkhEJiUSNj483JiUl7ab5XUsotv2+qGSrqqoaGBISUtvU1OSKwxoc5kAR2DmYLRUIhk5AVC75sHdDWFauXJnzzTffLGs7TPb5pF6vT9VqtQUsiXCUACQCXLp27ery9Ok/d1pswwbPwwW9YO/evR9pNJrt0dHRu8eOHUvzOx5NLxrZsrKyPt2wYcPXJpPJLJMlBBAPSAcVhOsIwV4N08D/UImQYOyQEtIAAaHSIJkRq7CwsPKTJ09G8oid5Fnl5eWlabXafHZuxioFWOAwHb4D6bBxw3tsepwfI7YBAQH/mZCQsHv69OmGwMDAWskL7OAKiEK2kydPBoSFhf2Hm5ubK9fBgT0YtK7YGiNRuMa3hrW14RESF54DuevXr1+zevXq9Q5us5/UB7JlZGTko4MIGyLAlG2Q8AHEGokGxAOMcCjJDi1ZMsKQPDAw8HhycvLulJQUWL/r0I4noeqHKGR744036u/fv+/BNS77P7cnYgvMDi/hd5aMUKm4HjccOrF54vfDhw9PmTx58iGhABUzXyBbenp6vtAyWeLBiEQul+9RKpV7Z8+e/QehZXek/AUn29SpU/9YVlY2jZ2bsb0YgokGBWOi1wwm/ezcjtsKs8NR7jwNW2kgI+QNeaEOV65cGTpkyJD/cnRDikU2dgiPw1LArlevXg1KpXL77NmzDRMnTqT5XQsVSlCyrV+/fsXq1at/DcZConDd9UA8uGdpEu/l5VUfEBBwbuTIkeeHDh16+unTp/3Pnz8fUlFRMb6mpkYGkRJsT4ceTFxCQHLh8Al70pCQkLP79u2b3K9fv5euSwe9xCAb20giTOyIARoyuIYOHfrXpKQkAzhW3nvvPVq/s1CnBCNbVVXV26NHj76LhoEehu19wIjY46BeSIbFixdvSk5OLvrggw+s9j5Xr17t/9133ylWrly5EWRAz8XO3SAv+MNIClzkBVnwu0ajyd+2bVu6g/LMrDa6/sUoA3e+x8pkyQdrpMHBwadgGSElJaXY1dX1ZeAmXS6CkW358uVfbNq0aTWLMRvlgMZDJwbc8/DwaNi/f//UCRMmVNhqm9OnT4+ByPeampqh2KPBnA16PW4vyhLQ19f34dWrV99w5Mk+LGprtdqttmLVlnRc5xMSi/V04hof6w0GWUC8WbNm7YuLizPExMQ4fXymYGQbNGhQ3a1btwbA8BCMAEaD71xnB1aA+Pj43fv27UtqS4WAZ5YvX/5Vbm7uKnY4Cj0pEA5ICPLhO7v4W1BQkJaWllbYVplSPycG2bhlRPKxvRnYFP7HYb2lXs/Ly6shOjq6CDyao0aNOi81dlLIF4RsRUVFGo1G81PMHuta5vZ0cC86OvrE/v37J7YXAIPBEK1Sqb6DHgx6t8ePH5uzhO9AOFw/Qm/lpEmTKo4dOza+vXKleh4XtYWUb2l5AOThsgw0YFzHFXfJBed1uI7q7+9/OTExEeZ3pf7+/reE1N+e8haEbCEhIScrKyvHc4eNuLCKxoLK7+7u7tLQ0MCbHitWrNi4cePG5WyFYCNM2MgUqEg3btwY6OXl9Xd7Moqtuuj1+gVarTbP1vRtTccuteD8mF2rg3xxyM72eBhwYO0+pA0PDz8MC+cpKSmlbdXPUZ7jrZJjgU+ePPmLsLCwMywA7Lif68natGnToqVLl+byCVhwcPC58+fPj7YUqMyVk52dvW7t2rXZfMoXK6+CgoL0tLQ0vVjyhJCDdaNTp04m6O1gGSE6OvpPQsiSOk/eyVZSUqJKTk7eBQVj3cbsOhrMm6C3mTNnzs4dO3bM4RuEo0eP/iI8PPzMqxbKUWa3bt1cYKvJo0ePILrZrXPnzoCJW1NTU6dOnTq5NYeXwT4fiH5xc33ZXFvDzQSXq6sr5PXTn8lket78G2zUg/vmDXuQtlkP+PxZns1yzLfd3EAN83YZ0/Pnz02AX/fu3U21tbX979696843flLnN3DgwP+JiYnZFRsbC/GZVVLrw5d83sm2Zs2aVV988cVXqCAuiHLnbdCibdu2TaFWq7/lqzBsPoMHD667fv36gJbyflXAs6U1ppbyE/M+11Mopmy+ZCHGuAePO//z9/e/qFaroccr9fX1vcOXXCny4Z1sCxYsyM/Pz09DENkJNjcOEo488PX1FeQ4A7lc/ueDBw9GcncEcEHG3g8jVzB6BR0A1pw7YhkL9WPXuWCUYMnzJ5ZOQshh54WQP+u9xuifCRMmHJo3b57h448/3iGEDkLnyTvZIiIiysvLyydzh3Dsuhrc69at2536+vq+QhUwJSXlt0VFRYtamrdZi4K3FBUvlK625MvubmgeWv7T1iJb8rHXNNgowye7PGPJDh4eHs+io6MNSqVyz/Tp0/9sr2Xi6sU72by8vK7dvHnTBysERvlzh2RxcXEHjUbjTKGAys/P1yxYsMC8/NDSZWkfHTYWrEetpXyEuI9RMJA3uzfNUiyoEPKFztPankTuArmFdOb57jvvvHMzPj5+p1qt3jZq1Ki/Ca1ve/LnnWzu7u6mhoYGs07caHwMQIZ74AVcvXq1YF7AsrKyUTNmzDhv6zAQo0vQtQ2f+L09ALf3WbZlx8gYxLWlXru9ssV8nm2M2S1C3CAIdnMsOIxw8zB8Dw0N3R8bG7t3yZIlRjF1t1UW72Tr169fze3bt2Xs8WqoDC52AkBTp049VFZWNsVWRVubzta4QUsOEmutbWt14Cs9u16JIwZ2axFfcqTIBxsTNmwPh5HsPSAjp+E092wymeyviYmJO2fNmlUUFBR0V4oy2CqTd7JNnDjx0PHjxyPYSsyt0OBu79q16//ev3+/l62KtjbdwoULc7ds2bIQnmMdM+xxbzjEtbaZ0palg9bq1dr0lhxNrc1D6vTc+Sb3f+5mV7ZRZgmHzq4333zzXlxc3B6FQrHTkbb28E42jUaj2759u5Yd4lhzQly+fHl4QEDAJSEqw7hx445UVlaGQyvJkh29jGg49uQpHPrCfIgN7xJCP1vz5FZMbi9naz72kI6LPTvVwB4bvZBsD97cYJpmzpxpVKlUsP72b/ZQntbqwDvZsrOzV6xdu/bXlhSBig0XbofR6XSpqampgkStv/vuu7du3brlCfLYYSFbebnRLEAyjKdE/aV2kLCnHLOVk9tItNbwYqVn55xsj8WS6VUNSGho6ClwgCxevNgmZ5dY5WqLHN7JVlhYGJ+amvotes7YbS1cBceNG3e6oqJiXFsUf9UzxcXFMampqb/DIaOltOhq7tu3L2x8vNjY2AhhGi8aGxtNPXr0cHv27Jk5auTFixfmTwjkaP5EzNhIEvyOnxBpYo4+aZ7Ew/wCIkrg7A78xO/mSBMrUSUQLWLq2rWrOTIFvkPgSXMUyrPa2lrZjRs3+vGNH5/5WQsMgN+RZOxaKDR4Pj4+NbGxsSUxMTHFQUFBP/Cpj5R58U62U6dOjQ4LCzvHDiO5Dge2R8nKytrw5ZdfZvEJQu/evR88ePCgp6XTk1EvGK7AwvC6deuy1/3/xad8sfIqKSmZm5ycvF0see2R01I0Tp8+fZ5PmzatUK1Wl06aNOlce2TZ67O8kw0KOnbs2GOnT5+eyB5HgMet4fABFy+b15G68LWjNz4+vsRoNKq5ZGe9o6xD5Nq1a4N8fHz+214N9Cq9cnJykpcuXVrsSLoD9kg86NFmzZq1PzExsTQ2Nna/I5WjLboKQjadTjcnMzOzFA/bsXSQKtvSwZkglZWVoW0pAPvM1q1bY+bPn/876DmB6BjSxI1CQNnh4eHHjx49Oqm9cqV6vqCgQJ2WlmbXpz1znSJgi5EjR15UqVTbFi1alNccoC0VhKLKFYRsUAJvb++/wWuf2B6GDdnCdROs+ImJiTsMBoO6raX/9NNP1+fk5GQBwVjvJ+SH6zNsVAgYPTc3NzU9PV0QB01by9Ga5xyBbGgLPz+/+wqFYotCoSh1xtd7gV0FI9vnn3++ZsOGDdkINvfMEQxDYudzPXv2/IfRaJRHRkaetbXSweumli1bVlJVVTWCzROHjehNxEk4Rsr37dv33u3bt9+0VY49ptPr9WqtVtvuno27vIBl5QZBw+84SuB+wj022gNwhjNIEhMTi2JiYnZERkaeskcMxdRJMLJduHDBOzg4+Dqc688aj91Gzz1tCxa74cUYn3zyya9iY2N3jh49utoaGNXV1Z7l5eVxS5cu/Rc2DXoZ8XxDjEbgvhlHq9Vu0ev1mWKCzbcsPsjGXYMEErFeXNaZxWKIa5FgT25IWVhY2J9SU1NhHraP7zI7cn6CkQ1Ayc7O/uXatWs3cSME0O3Lnspk6egCMPSgQYOuBAYGXvX19b107969t6uqqobV1tYOq6+v74ln+uMZI3ioK8Y0cltfJHdYWNjZEydOjEV3u6MaUKfTJWdkZLTbQQI4scNttA8Ov4FQuJRjaQ8d2DcoKKgmKSkpNz4+vsjT0/NlcCxdP0NAULKBpMjIyIOHDh2ajkMQ1qjwHQmAUd7s+Y7QkrKv+OXajhtOxa7psWFOOLxEedXV1b5+fn7XHL0u8EU2tA3Oo3GebWmoCGkxINrHx8dFpVL9Si6X7/7www8vOzqeQusvONmgAO7u7g8bGhrckRxs9Dr0aNzYSUuvOQLDW9s0iS0xfLIvVIRj7VgHDRDbaDRGREVFHRYaWDHyh3dqa7Xadq2zWdpJz0ansLGJkLZHjx4uUVFRpRD8GxERcVSMcnYUGaKQraysLCQqKuos6ylE4llrPS0FoLKg41YLbpQIDHOAwDgEwsk/yIPF81WrVm3oKMbjs2eztOjMjg5mzJhRHhMTUzp37lxDR8FP7HKIQjYoFJxN8vXXX3+F5ABnCDcOEXo0IIm1nbrcuR/ky31JB1tpWAfMpEmTDh87dixCbICFlMcH2dhRBAzboUGExgpeliiTyWo1Gs1vp0+fXiyTyR4IWRZnyFs0sgGYZ86cGTZ+/PhLEDOIZ/BjD8S+3BCGftyhJTs/s7Sxkw1m5Qa/LlmyZPPmzZt/2dEMygfZABMWa5lM9kyhUGxSKBR7hNqR0dHsYGt5RCUbKPXjjz+6JyQk/P7UqVMR6LjA3oj7YgwM8bK2IxnTc93X+BzcLywsTIZ4O1sBcaR0SDZuQ4QNF4ZG4S4LPH6dO2SEYOyIiAg4GtwQHh5+zJEwcCRdRScbgpOenp6Tl5e3BP/nvhcaT1Rit2XgGh08gxXK0gQf7gcHB1du3rxZGxoaetGRDNIaXcFBsnDhwu3YGMEnHglnrYFivb/wsnqlUmlISEig9bDWAN/GtJKRDfTdu3evori4WFVeXj4DF0cxQBnuW9spzV0XgrT4Eo0RI0ZciIqK2p2VlbW5jZg4zGM6nU6TkZFh3ufFvoSedQrBMB0JBmn8/f3/olard8bFxRUPGDDg5csQ6BIFAUnJhiU8c+bMCKPRqDIYDKo7d+68y6043JArS8ioVCpDVFSUIT4+/o+iIGcHQuAtNsuWLdv65MkTszY4V0Vy4XDR29v7ulKp3BUXF7dj5MiRgpzTaQdw2L0KdkE2RMlkMr1WWFioPnfu3Ii6urpBdXV1PnV1dX5NTU2d0ZEC3jNPT8+bQ4YMuQKVaMCAAXWwk9cZ33aJr4zCnh4PAYLPPn36PJ45c+ZOpVK5c/LkyaftviY6gYJ2RTZreF+7dq1XfX29T48ePf4hk8nqnMAuNhURXhm1ZMmSAvZ05ClTphxISkralZSU9K82ZUKJREPAIcgmGhoOJgiP6wsKCjqr0Wh2y+VymofZsQ2JbHZsnJZUy8vLmzdmzJhjgYGBtS2lpfvSI0Bkk94GpIGTIEBkcxJDUzGlR4DIJr0NSAMnQYDI5iSGpmJKjwCRTXobkAZOggCRzUkMTcWUHgEim/Q2IA2cBAEim5MYmoopPQJENultQBo4CQJENicxNBVTegSIbNLbgDRwEgSIbE5iaCqm9AgQ2aS3AWngJAgQ2ZzE0FRM6REgsklvA9LASRAgsjmJoamY0iNAZJPeBqSBkyBAZHMSQ1MxpUeAyCa9DUgDJ0GAyOYkhqZiSo8AkU16G5AGToIAkc1JDE3FlB4BIpv0NiANnAQBIpuTGJqKKT0CRDbpbUAaOAkCRDYnMTQVU3oEiGzS24A0cBIEiGxOYmgqpvQIENmktwFp4CQI/B8z3f4EmFO1ZAAAAABJRU5ErkJggg==;rotation=120;" vertex="1" parent="1">
          <mxGeometry x="-661.919559490896" y="449.99568616996794" width="43.83" height="21.81" as="geometry" />
        </mxCell>
        <mxCell id="TIW13-ViIwGv7jGZ9ARD-31" value="class, class health, attack , magic, defense, class abilities" style="text;strokeColor=none;align=center;fillColor=none;html=1;verticalAlign=middle;whiteSpace=wrap;rounded=0;" vertex="1" parent="1">
          <mxGeometry x="-634" y="441.81" width="340" height="30" as="geometry" />
        </mxCell>
        <mxCell id="TIW13-ViIwGv7jGZ9ARD-32" value="" style="shape=image;verticalLabelPosition=bottom;labelBackgroundColor=default;verticalAlign=top;aspect=fixed;imageAspect=0;image=data:image/png,iVBORw0KGgoAAAANSUhEUgAAAQIAAABkCAYAAABtlT6jAAAAAXNSR0IArs4c6QAAFGZJREFUeF7tXXtQVEe6nycIEpPadUXqaiIJEaLrGhOJdcX1FQy4oTZms0p4hGcgavZq1GvVdVO38sfNFhVjNFmjUWSQx8AAo4AgAWQk6LKzRrgqItZFhEFNCcRXiTyd161vlnY7JwfmzHBmOMx8UzU1j9P9dffv+/rXX3/dp49YhC9EABFwewTEbo8AAoAIIAIiJAI0AkQAEUAiQBtABBABERIBGgEigAggEaANIAKIgAiJAI0AEUAEkAjQBhABRAAQwFUDtANEABFAIkAbQAQQAfQI0AYQAUQApwZoA4gAIoAxArQBRAARsCCAwUI0BEQAEUAiQBtABBAB9AjQBhABRACnBmgDiAAigDECtAFEABHAYCHaACKACPwTAVw1QEtABBABJAK0AUQAEUCPAG0AEUAEcGqANoAIIAIYI0AbQAQQAQwWog0gAogArhqgDSACiMAIArh8iKaACCACuHyINoAIIAK4fIg2gAggArh8iDaACCACuHyINoAIIAK4fIg2gAggArh8iDaACCACuHyINoAIIAIEAdxHgLaACCACuI8AbQARQARwHwHaACKACOA+AmHYwO3bt73VanXy8ePH3zl79uxKYdQKa+FOCGCMYAK1XVFREZ6ZmZlQXV29oa+vT7x06dIGrVb72gRWya2K7unp8a2vr1/S0dExp7Oz84Xu7u7nr1+/7n/jxo3nZDKZyM/P70ZAQED7s88+2+7v798RFBSkCwwMPO3v7z/kakAhEThZoy0tLQFZWVnJxcXFCe3t7TPB4AwGg2jKlCmil156qenixYsvO7lKblfc+fPngzMyMhILCwvfe/jwoY9IJDKDdywWi0VmM3z950sqlYqMRiNcsPyGa97e3qLw8PCCDz74IDMsLKzGVcBDInCCJs1ms0SpVMbv378/6cKFCyEGg8GCu0QiEZlMpic1WLhwYUtTU9OvnVAltywiPz9/Q0FBQUJZWVk4W8dnA4UmB0IMkA4IYcaMGTcSEhJyIyIi8hYvXvx/kxlUJAIHaq+mpmaZSqVKKioqerevr8/rqaeeEj169MhSIngAQ0M/9TAXLFhwrbm5OdCBVXJL0V1dXb9KSUnJrKioeNNsNlts3sfHR9TX12cVD7rzMxPL5XKRXq8XPf300w8///zznampqUesChRoAiQCnhXT0dHhW1hYmJSenh5/+/btucPDwz9zOUmRTI9g3rx5HVevXn2B5yq5tbhz5869un79+mPd3d1zoNMy3X8u4DDz0HqDqR14dfCOiYnJzcvLi+MiU2hpkAh40khhYeEGpVKZUFVVFQ4GJ5VKxTC/ZL48PDxEjx8/tvxNf4ffgYGBN1tbW5/jqUpuL6akpGTd22+/XQzTABjZoUNDPAZe8B06NJuOmMAx08JvQg4kpkA8vICAgA6tVrtwxowZ1t0NAWkIiWAcytBqtYtUKlVydnZ2TG9v79Nk3kkMjcz/weCg0w8PD1sCTmBE4FYSQiBG5e/vf1un0/3bOKqEWUcQiI2NzVUqlTEymcxi44QA4Ds9inMBjHR8Op4D+UCv8CL/k3QSicR85syZV0JCQi5xkS+ENEgENmrhxx9/9CkoKEgqKSlJ/O67714mowV0cDAMYnAwAoGBMEcdMjIRd5IYFPyeNWvWjz/88IOvjVXC5AwEtm/f/tf9+/f/B+iCXgWgvTDQC62v0UCkpwGjEQJZ+aF1CWRw//79Xz7zzDMPJoOCkAg4aqmsrGxtZmZmYmVl5R9hZIfR39PT0+Ja0u4mGB4diCLBJviEN/EC2IzHz8/vfldX1y85VgmTsSCg0WjWhIaGnqIvQWcGvYC+IEDLnJKNBSSTCIgspndAiJ8mixdffPHatWvXJkXwF4lgDCu4evXqi3l5eUkKhSLuzp07fhBxBgNgCziRjk0bDiEB2oWk16SJHJLH19f3UU9PzzTs4fYjMH369Nv37t3zA31ArIYZkKUxB3JgegxsJdM6Y14nxEDLIWWA/uPi4o4ePXo0yf4WOScnEgEDZ7PZLFepVLEHDx6Mr6+vX+6sbdhgUD4+PkO9vb1ezlG965Wybt26vIqKimgyJRhr6c9ZrQdC2rJly2d79+79L2eVaU85SAQjqNXV1f0WmLu0tDTq4cOHnvA37b7bA64teWAUmTp16uO+vj5L2fiyDQHw2lJTU7NBZyNTN9sEOCg18Q5qa2uXrV69+u8OKmbcYt2aCHQ63UylUplYUlISf+HChbkw+hNXDxTInAeOG20rAry9vQ0DAwNyR5fjivKXL19ed/bs2RXQNtAd7Pzr7+8XRFPBM0lOTk5PT0//QBAVYqmEWxIBrPlnZGTE19bWrjUajU8woD0AWwJK41EuHW/w9PQ0DQ8PS8cjzx3zgjf3+uuvnyExHIKBPZuH+MYP6gBBSk9Pz6GWlpZZs2bNusd3GXzIcxsiaGxsfOXgwYOw7Pdeb2/vNBjtIcDjTPefTWG0scrlcpNer0cisNGyo6Ojs/Pz8y07+giBA64wEtP7B2wUy2tysLPPPvts644dO/7Kq2CehLk0EZA1f9jxd/78+UXM4BEd6ScRZEgD30dbHeAJ9ydi6Ij0SP1cWid84wdbugMDA7v0er1lWkemc2z3cvBdNhd54A3AkjHYVHBw8IWGhoZXueRzdhqXNLra2trfHTp0KFGtVr8D7iLdudnIgN7cM9rdZo5UDClzJC4hEYvF/7oX1pEFu4DsXbt2/SUtLe3PhFDpdX7m0uFENZdeRtZoNCtXr159ZqLqMlq5LkMETU1NgXl5edD543Q6nR8JGpFNJEwArMUAnDm/JAYLBGAymTzFYrFeaIbCd33g1mxYmOns7JRMnTpVJpPJpAMDA7LHjx/LTCaTh8lkkhuNRtnw8LDcZDKR/6V6vV5mMBgsb5PJJP7oo48Ot7a2/uRGLVvuI+C7XUx5tNcJ1w4fPpyUkpJy1NHl2ip/UhOB2WyWwbJRTk5OQn19/W9pd14oo4E1hdD19PDwMJ86dWqJl5cX3JUEHUEyODgoE4vFcjB86BjQUeATOofRaJQODw/LYO8DxBbgf0g30lmk0JlGOpYlrV6vt/w2GAzQuaSA3+DgoBw+RzqW5brRaLSUB/+DfJAL+YlsuA6/4frQ0JAlncFggOtP6gm/TSaTZGhoSAJlwRkMkIcOzo6TbInXJGgbZrZx165dn6alpf23Nbtw9nVBgzgaGKdPn16uUCiSjx07FgdzL7KDDEAnd5NZG/GdDfRY5TGnIyRGQbwa+BxtB9xYu94gH5kW0TKYu+DGkm8tvzUcSX6uu/isyZuM12n9xsXFqXJycqKF1o5JQwSw5p+bm5uUm5ub2NbWFsAEkrmNdyL2AdirXGIoMI2BzTB0zICWSTo9+YRrbLfR0te5bKEdqwyueynY6kYTMymDrttYBGQvlkLMR3t9ixcv/t/GxsbFQqun4IkgKytrg0qlggM+1wJ45FQYMtqRZUDa0IjxT/TSIFdl0/X08vKyeDiw7MWl/iQ4RpdFd35CkOQ6GzGMRRZ8dVymHHchAWgnTQTTp09/ePfu3We42oaz0gmSCBoaGhbBnX4qlSq+v79/GlkLJgbLDAbBNABeZIow2kjpLFBtLQfcZ3hBu+h1b7ZOTtKRMpgjtr0dl5mP/GbzCNg8Dlvy24rPZE9PEwHseBwYGBBcvxNMhdra2qadOHEiHs74a2lpeZl5np8th0lAWiANLqfPCMnI6CkBH1Ob0YJxXKcObPltIZpxBgOFpBre6jJz5sy73d3dv+JNIE+CJpwI4Gz/I0eOJFRWVkYybxaBkRJG+8HBwSfNJaMn/EGfDEMfRUWfDMR1jssTnjaLgdGCBNTAG6CnPvToby1YOJrrb63jWgs2WuvM1vKzAcKViGwGU8AZCI6LFi26evHixflCq+qEEgHc75+bmxt18uTJDc3NzfNpo2IeCEHuLycAUmvvP4uogxw+RlRnKYv2BCZy27Oj5/HWSMVZeDuzHNJmYq+hoaF1Go1mlTPrwKWsCSUCuoLwYA+lUhlbXFwcqdPpZrGNhvQ+ctJhyK5AZtxgrMbTOw25gOToNDRxsR2kAeXbGv0ndbbmETijbcwybGkLl/qzeSVCIR0myUdFRalUKhUuH3IxvHPnzi3LysqKLikpiezp6fkF5GFG0JlMSxs+vWpApgZs69hCOLiCxoPsj7fXo7FnRCdTLYIZ85NedWBeg7pb22dgbRpA56cJj5RFB0zZCIRMpcggwXZiEBebc2Qaerq3devWfV999dV2R5Znj2zBeASjVb68vPyNoqKiGCAFcmgHGTUJwLD+Dh0eVg2IcY61vk4b2UTHEOh96CN1MY+QnBjax3YApz2KHi0PlA94AtFCeXAHpFwu18tkMr1EIjFIpVKjVCrVw9vDw8Mgl8uNcF0ulxvEYrFBIpEYYUs0/Ofh4QH5LNdJHkgP16n8BplMBm+SBs58J3lBvuUN10E+lAmfJI+Hh4cR/oO6yeXyxwcOHNh08uTJd6B9bMfE8YmVPbJobwUwVigUKfHx8Rn2yHJkHsETAd14tVr9B7VaHQ1PDR5tRYD2HEgno91EcsikLe6pIxXAkG3+5JNP/jJ79uxr0AGhY4Hhjxg9dBzoEEboFNCxoMNAR4SOAZ3Jy8vLch3SwTWDwWCcMmWKEf6H73q93ujn5wfPWLN0Lie2y2FF1dTUvBkWFnaS7ajxiSZ52ksFkjUajUaDweAhFov/9Zw7hyFjm+BJRQSkabC3PScn510ghW+//day0YjN9SduLXwCcbAdMGkbXPynZkwDzN9///1rS5YsaeS/JNeVOH/+/PM3b94MhsfJkd2Z0FouG7KcicrGjRszDh06lOLMMrmWNSmJgG7cnTt3nlKr1VH5+fnRjY2NK2D/Ab2USNLSW5DHmj5wBY7PdDQZ1NXVLV25cuU/+JTv6rIOHDjwpw8//HA/tFMoQUIac/AGwDvRaDTBq1atEiTJT3oioAHv7Oz0y8/PjyooKIhpbW19BfYl0CMEfSOSUAKFzFFLo9EsDw0N/Zurd14+2wcH0CxcuLC9u7t7Bnh9tqwg8VkPNlkkbrFy5crTdXV1oY4uz175LkUENAjNzc0vwNShqKgo+vr160HMvftCIQIygpH61NTUrFqzZk2dvQp113w7duzY88UXX+ygSYC5OWuisAHdZmRkxCUmJuZOVB2sleuyREA3XKvVLiguLo4pLS2NIXsUIGZAOh8ZlZlBRToNLQ/SkbzjDTrSZcL38vLyNRERERprisPrP0Xg8uXLQStWrKh/8OCB5UlRxBNkI/zRlp7twZSM+GxBaiIvJSXlyJEjR1Ltke+sPG5BBDSYGo3m32H6oNFoom/evPnk8WJk/RmmD7AMSW9fJjEF+kgzvhTEJILS0tK1b731VhVf8t1JDmzUiY6OzmMeWgoY0ztT+T6rgiYWKJvc/AY2NWfOnI62trZ5YrHY8pw8ob7cjghoRVRWVr5eWFgYBTc7PXjwQEZfIwEeepmSBBzJ2jAfNzUxiaCkpOT369atKxeqwQi9Xtu2bdu7b9++bSPLdT97NsXI3X+WPRN87dEgG8HY9jE0NDQsCA4OviJ03NyaCGjllJWVvaVUKqNPnDixATonrD7QIwnbbj8+jkNjEkFBQcHbkZGRpUI3HCHXb+nSpWe0Wu1yQtjE22OeTM23Z8A8WOabb77ZuGnTpsNCxorUDYmAoSWz2SzNzs6GPQpRVVVVb7KN+jCaQGyAjzPzmUSQm5u7PjY29thkMB4h19Hb2/vR0NCQD1lFABIgT6nm814T+vZ4Ok6wdu3a6srKynAhY0TXDYlgDE3du3dvWnFx8buwHAnnJNJBKPjOx4YVJhFkZ2dHxcXFFUwWAxJyPcPCwr4lJ1uxHWPP55kVxBbAy0hNTd3z9ddf7xQyNsy6IRFw1BY8SKOkpCQqJycn9vLly6+CEfG9BAkubEZGxntJSUlKjtXCZFYQyMzMjEpOTs4n0wS+tx1DxwdbgACht7e3ac+ePfGbN2+edPpDIrCjK7W1tb0AQUbwFK5cuRJkhwjWLEAE6enpCe+//342XzJRjkik1WoXbd68+XBzc3Mwmerx4c3R2IaEhJzbvXv3ppCQkEuTEXMkgnFq7dKlS/Nh2Qo2Lul0ujkgjnb3SUCRGVikA1X0NYVC8X5ycrJinNXC7AwEdDrdlN27d+/Oz89P7O3ttcQOngTKxOKf3IdC38pMdMm2WxHSBQUFXUlOTs7evn37l5P5Ri4kAh67TENDw2vZ2dlwd+S7XV1dvmRnG/kkxgRGCC4quSeCfIfRau/evRvh6T08VgtFUQh0d3dPVSgUG4uKihKampp+TZ+XAMlogqCfW0iDCPoMDw+viIyMzHKVwC4SgYO6SVVV1arCwsLosrKyqPv3708FA6MPz4Bi6U1LxAD37dv3p23bth1wULVQLIVAdXX1UoVCsbm9vf03HR0dM/v7+y2HisJqEB1LmD17dk9AQECbr6+vbu7cuTffeOON0mXLlgny5iF7FYxEYC9yNuRTq9URx48fh41L6+FxYfB0XCAFMDb6HghwNb/88sutW7ZsEeSjs21o8qRN2tbW5mkymaYPDQ35ymSyu/PmzftBiOcH8A0wEgHfiFqRl5mZGQleQnl5+e/hOYDk6HVwUYEU0tLS/nPXrl1fOLlaWJybI4BEMEEGcOvWLa/q6uqooqKiqFOnTlluT4U56c6dO//86aefpk1QtbBYN0UAiUAAir9169Yvjh07BqQQExERUfnxxx//jwCqhVVwIwSQCASm7I6Ojueef/75GwKrFlbHxRFAInBxBWPzEAEuCCARcEEJ0yACLo4AEoGLKxibhwhwQQCJgAtKmAYRcHEEkAhcXMHYPESACwJIBFxQwjSIgIsjgETg4grG5iECXBBAIuCCEqZBBFwcASQCF1cwNg8R4IIAEgEXlDANIuDiCCARuLiCsXmIABcEkAi4oIRpEAEXR+D/Aba+sfvzItDUAAAAAElFTkSuQmCC;rotation=95;" vertex="1" parent="1">
          <mxGeometry x="-791.61" y="385" width="51.61" height="20" as="geometry" />
        </mxCell>
        <mxCell id="TIW13-ViIwGv7jGZ9ARD-37" value="character created" style="text;strokeColor=none;align=center;fillColor=none;html=1;verticalAlign=middle;whiteSpace=wrap;rounded=0;" vertex="1" parent="1">
          <mxGeometry x="-840" y="380" width="60" height="30" as="geometry" />
        </mxCell>
      </root>
    </mxGraphModel>
  </diagram>
</mxfile>
